<svg width="134" height="32" viewBox="0 0 134 32" fill="none" xmlns="http://www.w3.org/2000/svg">
<path d="M52.5124 13.441V11.3672C53.1396 11.3672 53.7285 11.252 54.2789 11.0216C54.8294 10.7784 55.3094 10.4456 55.719 10.0231C56.1287 9.6007 56.4487 9.10786 56.6791 8.54462C56.9095 7.98138 57.0247 7.37334 57.0247 6.72049C57.0247 6.06764 56.9095 5.4596 56.6791 4.89636C56.4487 4.33312 56.1287 3.84028 55.719 3.41785C55.3094 2.99542 54.8294 2.66899 54.2789 2.43858C53.7285 2.19536 53.1396 2.07375 52.5124 2.07375V0C53.8309 0 54.9958 0.288021 56.0071 0.864063C57.0311 1.4273 57.8312 2.21456 58.4072 3.22584C58.9961 4.23711 59.2905 5.40199 59.2905 6.72049C59.2905 8.02618 58.9961 9.18467 58.4072 10.1959C57.8312 11.2072 57.0311 12.0009 56.0071 12.5769C54.9958 13.153 53.8309 13.441 52.5124 13.441ZM49.7282 13.441V11.3672H52.5124V13.441H49.7282ZM48.2881 13.441V0H50.5155V13.441H48.2881ZM49.7282 2.07375V0H52.5124V2.07375H49.7282Z" fill="white"/>
<path d="M65.2489 13.6714C64.3145 13.6714 63.4824 13.4602 62.7527 13.0377C62.0231 12.6025 61.4534 12.0073 61.0438 11.252C60.6342 10.4968 60.4294 9.6263 60.4294 8.64063C60.4294 7.65496 60.6406 6.78449 61.063 6.02924C61.4855 5.27398 62.0615 4.68514 62.7911 4.26271C63.5208 3.82748 64.3657 3.60986 65.3257 3.60986C66.1706 3.60986 66.9386 3.83388 67.6299 4.28191C68.3211 4.71714 68.8652 5.35079 69.262 6.18285C69.6716 7.01491 69.8765 8.00698 69.8765 9.15907H67.7067C67.7195 8.32701 67.6235 7.64216 67.4187 7.10452C67.2267 6.56688 66.945 6.17005 66.5738 5.91403C66.2026 5.64521 65.761 5.5108 65.2489 5.5108C64.7113 5.5108 64.2505 5.63241 63.8664 5.87563C63.4952 6.11885 63.2072 6.47727 63.0024 6.95091C62.7975 7.41174 62.6951 7.99418 62.6951 8.69823C62.6951 9.32548 62.8167 9.86312 63.06 10.3112C63.3032 10.7592 63.6296 11.1048 64.0392 11.348C64.4617 11.5784 64.9289 11.6937 65.4409 11.6937C66.0042 11.6937 66.4714 11.5656 66.8426 11.3096C67.2139 11.0408 67.5019 10.7016 67.7067 10.2919L69.6844 11.1368C69.4156 11.6488 69.0764 12.0969 68.6668 12.4809C68.2571 12.8649 67.7643 13.1594 67.1883 13.3642C66.6122 13.569 65.9658 13.6714 65.2489 13.6714ZM61.8311 9.15907L61.8503 7.45014H68.7628V9.15907H61.8311Z" fill="white"/>
<path d="M73.985 13.441L77.7292 3.84028H79.9566L76.0011 13.441H73.985ZM73.8313 13.441L69.8567 3.84028H72.0648L75.8283 13.441H73.8313Z" fill="white"/>
<path d="M85.0511 13.6714C84.1166 13.6714 83.2846 13.4602 82.5549 13.0377C81.8253 12.6025 81.2556 12.0073 80.846 11.252C80.4364 10.4968 80.2316 9.6263 80.2316 8.64063C80.2316 7.65496 80.4428 6.78449 80.8652 6.02924C81.2876 5.27398 81.8637 4.68514 82.5933 4.26271C83.323 3.82748 84.1679 3.60986 85.1279 3.60986C85.9728 3.60986 86.7408 3.83388 87.4321 4.28191C88.1233 4.71714 88.6674 5.35079 89.0642 6.18285C89.4738 7.01491 89.6786 8.00698 89.6786 9.15907H87.5089C87.5217 8.32701 87.4257 7.64216 87.2209 7.10452C87.0289 6.56688 86.7472 6.17005 86.376 5.91403C86.0048 5.64521 85.5632 5.5108 85.0511 5.5108C84.5135 5.5108 84.0526 5.63241 83.6686 5.87563C83.2974 6.11885 83.0094 6.47727 82.8046 6.95091C82.5997 7.41174 82.4973 7.99418 82.4973 8.69823C82.4973 9.32548 82.6189 9.86312 82.8622 10.3112C83.1054 10.7592 83.4318 11.1048 83.8414 11.348C84.2639 11.5784 84.7311 11.6937 85.2431 11.6937C85.8064 11.6937 86.2736 11.5656 86.6448 11.3096C87.0161 11.0408 87.3041 10.7016 87.5089 10.2919L89.4866 11.1368C89.2178 11.6488 88.8786 12.0969 88.469 12.4809C88.0593 12.8649 87.5665 13.1594 86.9905 13.3642C86.4144 13.569 85.768 13.6714 85.0511 13.6714ZM81.6333 9.15907L81.6525 7.45014H88.565V9.15907H81.6333Z" fill="white"/>
<path d="M91.052 13.441L91.0712 0H93.2218L93.2026 13.441H91.052Z" fill="white"/>
<path d="M99.7753 13.6714C98.8024 13.6714 97.9384 13.4602 97.1831 13.0377C96.4406 12.6025 95.8582 12.0073 95.4358 11.252C95.0133 10.4968 94.8021 9.6263 94.8021 8.64063C94.8021 7.65496 95.0069 6.78449 95.4166 6.02924C95.839 5.27398 96.4214 4.68514 97.1639 4.26271C97.9191 3.82748 98.7768 3.60986 99.7369 3.60986C100.71 3.60986 101.567 3.82748 102.31 4.26271C103.052 4.68514 103.635 5.27398 104.057 6.02924C104.48 6.78449 104.691 7.65496 104.691 8.64063C104.691 9.6263 104.48 10.4968 104.057 11.252C103.635 12.0073 103.052 12.6025 102.31 13.0377C101.58 13.4602 100.735 13.6714 99.7753 13.6714ZM99.7753 11.5976C100.287 11.5976 100.735 11.476 101.119 11.2328C101.516 10.9768 101.823 10.6248 102.041 10.1767C102.271 9.72871 102.387 9.21667 102.387 8.64063C102.387 8.06459 102.271 7.55255 102.041 7.10452C101.823 6.65649 101.51 6.31086 101.1 6.06764C100.703 5.81162 100.249 5.68361 99.7369 5.68361C99.2248 5.68361 98.7704 5.81162 98.3736 6.06764C97.9768 6.31086 97.6631 6.65649 97.4327 7.10452C97.2151 7.55255 97.1063 8.06459 97.1063 8.64063C97.1063 9.21667 97.2151 9.72871 97.4327 10.1767C97.6631 10.6248 97.9768 10.9768 98.3736 11.2328C98.7832 11.476 99.2504 11.5976 99.7753 11.5976Z" fill="white"/>
<path d="M106.356 17.2813V3.84028H108.372L108.507 5.60681V17.2813H106.356ZM111.54 13.6714C110.734 13.6714 110.036 13.4666 109.448 13.0569C108.871 12.6345 108.43 12.0457 108.123 11.2904C107.815 10.5352 107.662 9.6519 107.662 8.64063C107.662 7.61655 107.815 6.73329 108.123 5.99084C108.43 5.23558 108.871 4.65314 109.448 4.24351C110.036 3.82108 110.734 3.60986 111.54 3.60986C112.411 3.60986 113.166 3.82108 113.806 4.24351C114.459 4.65314 114.965 5.23558 115.323 5.99084C115.694 6.73329 115.88 7.61655 115.88 8.64063C115.88 9.6519 115.694 10.5352 115.323 11.2904C114.965 12.0457 114.459 12.6345 113.806 13.0569C113.166 13.4666 112.411 13.6714 111.54 13.6714ZM111.003 11.7129C111.515 11.7129 111.969 11.5848 112.366 11.3288C112.763 11.06 113.077 10.6952 113.307 10.2343C113.55 9.77351 113.672 9.24227 113.672 8.64063C113.672 8.03899 113.557 7.50775 113.326 7.04691C113.109 6.58608 112.801 6.22765 112.405 5.97163C112.008 5.71562 111.547 5.58761 111.022 5.58761C110.536 5.58761 110.1 5.71562 109.716 5.97163C109.332 6.22765 109.032 6.58608 108.814 7.04691C108.609 7.50775 108.507 8.03899 108.507 8.64063C108.507 9.24227 108.609 9.77351 108.814 10.2343C109.032 10.6952 109.326 11.06 109.697 11.3288C110.081 11.5848 110.516 11.7129 111.003 11.7129Z" fill="white"/>
<path d="M121.73 13.6714C120.796 13.6714 119.964 13.4602 119.234 13.0377C118.504 12.6025 117.935 12.0073 117.525 11.252C117.116 10.4968 116.911 9.6263 116.911 8.64063C116.911 7.65496 117.122 6.78449 117.544 6.02924C117.967 5.27398 118.543 4.68514 119.272 4.26271C120.002 3.82748 120.847 3.60986 121.807 3.60986C122.652 3.60986 123.42 3.83388 124.111 4.28191C124.803 4.71714 125.347 5.35079 125.743 6.18285C126.153 7.01491 126.358 8.00698 126.358 9.15907H124.188C124.201 8.32701 124.105 7.64216 123.9 7.10452C123.708 6.56688 123.426 6.17005 123.055 5.91403C122.684 5.64521 122.242 5.5108 121.73 5.5108C121.193 5.5108 120.732 5.63241 120.348 5.87563C119.977 6.11885 119.689 6.47727 119.484 6.95091C119.279 7.41174 119.176 7.99418 119.176 8.69823C119.176 9.32548 119.298 9.86312 119.541 10.3112C119.785 10.7592 120.111 11.1048 120.521 11.348C120.943 11.5784 121.41 11.6937 121.922 11.6937C122.486 11.6937 122.953 11.5656 123.324 11.3096C123.695 11.0408 123.983 10.7016 124.188 10.2919L126.166 11.1368C125.897 11.6488 125.558 12.0969 125.148 12.4809C124.739 12.8649 124.246 13.1594 123.67 13.3642C123.094 13.569 122.447 13.6714 121.73 13.6714ZM118.312 9.15907L118.332 7.45014H125.244V9.15907H118.312Z" fill="white"/>
<path d="M129.152 8.33341C129.152 7.29653 129.35 6.44527 129.747 5.77962C130.144 5.11397 130.656 4.62114 131.283 4.30111C131.923 3.96829 132.589 3.80188 133.28 3.80188V5.85643C132.692 5.85643 132.135 5.93963 131.61 6.10604C131.098 6.25966 130.682 6.51567 130.362 6.8741C130.042 7.23253 129.882 7.70616 129.882 8.295L129.152 8.33341ZM127.731 13.441V3.84028H129.882V13.441H127.731Z" fill="white"/>
<path d="M57.6008 31.7696L52.3588 18.3286H54.5861L59.9625 31.7696H57.6008ZM46.8672 31.7696L52.2244 18.3286H54.4709L49.229 31.7696H46.8672ZM49.3826 28.4669V26.4892H57.428V28.4669H49.3826Z" fill="white"/>
<path d="M62.9814 29.0814L61.6757 27.6029L66.668 22.1689H69.2602L62.9814 29.0814ZM60.9268 31.7696V18.3286H63.0774V31.7696H60.9268ZM67.0329 31.7696L63.6534 26.7964L65.0551 25.2987L69.5866 31.7696H67.0329Z" fill="white"/>
<path d="M76.0013 31.7696L75.9052 26.8348C75.9052 26.182 75.8348 25.6379 75.694 25.2027C75.5532 24.7675 75.3356 24.4346 75.0412 24.2042C74.7468 23.9738 74.3499 23.8586 73.8507 23.8586C73.4027 23.8586 73.0058 23.9546 72.6602 24.1466C72.3146 24.3386 72.0266 24.6331 71.7962 25.0299L69.876 24.3578C70.0936 23.9354 70.3752 23.5386 70.7209 23.1674C71.0665 22.7961 71.5017 22.5017 72.0266 22.2841C72.5514 22.0537 73.1787 21.9385 73.9083 21.9385C74.83 21.9385 75.598 22.1113 76.2125 22.4569C76.8397 22.8025 77.307 23.3146 77.6142 23.993C77.9214 24.6715 78.075 25.5099 78.075 26.5084V31.7696H76.0013ZM73.2747 32C72.1354 32 71.2457 31.744 70.6057 31.2319C69.9784 30.7199 69.6648 29.9967 69.6648 29.0622C69.6648 28.0637 69.9976 27.3021 70.6633 26.7772C71.3417 26.2524 72.2826 25.99 73.4859 25.99H76.5005L76.5197 27.6413H74.1579C73.3003 27.6413 72.6986 27.7629 72.353 28.0061C72.0202 28.2365 71.8538 28.5694 71.8538 29.0046C71.8538 29.3758 72.001 29.6702 72.2954 29.8878C72.6026 30.0927 73.025 30.1951 73.5627 30.1951C74.0363 30.1951 74.4459 30.0863 74.7916 29.8686C75.15 29.6382 75.4252 29.3438 75.6172 28.9854C75.8092 28.6142 75.9052 28.2173 75.9052 27.7949H76.7117C76.7117 29.1006 76.4301 30.1311 75.8668 30.8863C75.3164 31.6288 74.4523 32 73.2747 32Z" fill="white"/>
<path d="M86.8169 31.7696L86.7209 29.9839V18.3286H88.8522V31.7696H86.8169ZM83.6871 32C82.8166 32 82.0549 31.7952 81.4021 31.3856C80.7621 30.9631 80.2564 30.3743 79.8852 29.619C79.5268 28.8638 79.3475 27.9805 79.3475 26.9692C79.3475 25.9452 79.5268 25.0619 79.8852 24.3194C80.2564 23.5642 80.7621 22.9817 81.4021 22.5721C82.0549 22.1497 82.8166 21.9385 83.6871 21.9385C84.4935 21.9385 85.1848 22.1497 85.7608 22.5721C86.3497 22.9817 86.7977 23.5642 87.1049 24.3194C87.4121 25.0619 87.5657 25.9452 87.5657 26.9692C87.5657 27.9805 87.4121 28.8638 87.1049 29.619C86.7977 30.3743 86.3497 30.9631 85.7608 31.3856C85.1848 31.7952 84.4935 32 83.6871 32ZM84.2247 30.0415C84.7111 30.0415 85.14 29.9134 85.5112 29.6574C85.8952 29.3886 86.1896 29.0238 86.3945 28.563C86.6121 28.1021 86.7209 27.5709 86.7209 26.9692C86.7209 26.3676 86.6121 25.8364 86.3945 25.3755C86.1896 24.9147 85.8952 24.5563 85.5112 24.3002C85.14 24.0442 84.7047 23.9162 84.2055 23.9162C83.6935 23.9162 83.239 24.0442 82.8422 24.3002C82.4454 24.5563 82.1318 24.9147 81.9013 25.3755C81.6837 25.8364 81.5685 26.3676 81.5557 26.9692C81.5685 27.5709 81.6837 28.1021 81.9013 28.563C82.1318 29.0238 82.4454 29.3886 82.8422 29.6574C83.2518 29.9134 83.7127 30.0415 84.2247 30.0415Z" fill="white"/>
<path d="M95.2429 32C94.3084 32 93.4763 31.7888 92.7467 31.3664C92.017 30.9311 91.4474 30.3359 91.0378 29.5806C90.6281 28.8254 90.4233 27.9549 90.4233 26.9692C90.4233 25.9836 90.6345 25.1131 91.0569 24.3578C91.4794 23.6026 92.0554 23.0137 92.7851 22.5913C93.5147 22.1561 94.3596 21.9385 95.3197 21.9385C96.1645 21.9385 96.9326 22.1625 97.6238 22.6105C98.3151 23.0457 98.8591 23.6794 99.2559 24.5115C99.6656 25.3435 99.8704 26.3356 99.8704 27.4877H97.7006C97.7134 26.6556 97.6174 25.9708 97.4126 25.4331C97.2206 24.8955 96.939 24.4987 96.5678 24.2426C96.1965 23.9738 95.7549 23.8394 95.2429 23.8394C94.7052 23.8394 94.2444 23.961 93.8604 24.2042C93.4891 24.4474 93.2011 24.8059 92.9963 25.2795C92.7915 25.7403 92.6891 26.3228 92.6891 27.0268C92.6891 27.6541 92.8107 28.1917 93.0539 28.6398C93.2971 29.0878 93.6235 29.4334 94.0332 29.6766C94.4556 29.907 94.9228 30.0223 95.4349 30.0223C95.9981 30.0223 96.4653 29.8942 96.8366 29.6382C97.2078 29.3694 97.4958 29.0302 97.7006 28.6206L99.6784 29.4654C99.4096 29.9775 99.0703 30.4255 98.6607 30.8095C98.2511 31.1935 97.7582 31.488 97.1822 31.6928C96.6062 31.8976 95.9597 32 95.2429 32ZM91.825 27.4877L91.8442 25.7787H98.7567V27.4877H91.825Z" fill="white"/>
<path d="M101.244 31.7696V22.1689H103.26L103.394 23.9354V31.7696H101.244ZM107.753 31.7696V26.854L109.904 26.278V31.7696H107.753ZM114.281 31.7696V26.854L116.413 26.278V31.7696H114.281ZM107.753 26.854C107.753 26.086 107.663 25.4971 107.484 25.0875C107.318 24.6651 107.075 24.3706 106.755 24.2042C106.447 24.0378 106.082 23.9546 105.66 23.9546C104.943 23.9418 104.386 24.1786 103.99 24.6651C103.593 25.1515 103.394 25.8492 103.394 26.758H102.588C102.588 25.7467 102.735 24.8827 103.029 24.1658C103.324 23.4362 103.746 22.8857 104.297 22.5145C104.847 22.1305 105.5 21.9385 106.255 21.9385C107.42 21.9385 108.316 22.2969 108.944 23.0137C109.584 23.7178 109.904 24.8059 109.904 26.278L107.753 26.854ZM114.281 26.854C114.281 26.086 114.192 25.4971 114.013 25.0875C113.833 24.6651 113.584 24.3706 113.264 24.2042C112.957 24.0378 112.598 23.9546 112.189 23.9546C111.459 23.9418 110.896 24.1786 110.499 24.6651C110.102 25.1515 109.904 25.8492 109.904 26.758H109.097C109.097 25.7467 109.244 24.8827 109.539 24.1658C109.833 23.4362 110.256 22.8857 110.806 22.5145C111.356 22.1305 112.009 21.9385 112.765 21.9385C113.929 21.9385 114.832 22.2969 115.472 23.0137C116.112 23.7178 116.426 24.8059 116.413 26.278L114.281 26.854Z" fill="white"/>
<path d="M118.358 31.7696L118.377 22.1689H120.508L120.489 31.7696H118.358ZM119.433 20.3448C119.088 20.3448 118.787 20.2231 118.531 19.9799C118.287 19.7239 118.166 19.4231 118.166 19.0775C118.166 18.7318 118.287 18.4374 118.531 18.1942C118.787 17.951 119.088 17.8294 119.433 17.8294C119.779 17.8294 120.073 17.951 120.316 18.1942C120.572 18.4374 120.7 18.7318 120.7 19.0775C120.7 19.4231 120.572 19.7239 120.316 19.9799C120.073 20.2231 119.779 20.3448 119.433 20.3448Z" fill="white"/>
<path d="M127.037 32C126.102 32 125.27 31.7888 124.541 31.3664C123.811 30.9311 123.241 30.3359 122.832 29.5806C122.422 28.8254 122.217 27.9549 122.217 26.9692C122.217 25.9836 122.429 25.1131 122.851 24.3578C123.273 23.6026 123.849 23.0137 124.579 22.5913C125.309 22.1561 126.154 21.9385 127.114 21.9385C127.959 21.9385 128.727 22.1625 129.418 22.6105C130.109 23.0457 130.653 23.6794 131.05 24.5115C131.46 25.3435 131.664 26.3356 131.664 27.4877H129.495C129.507 26.6556 129.411 25.9708 129.207 25.4331C129.015 24.8955 128.733 24.4987 128.362 24.2426C127.991 23.9738 127.549 23.8394 127.037 23.8394C126.499 23.8394 126.038 23.961 125.654 24.2042C125.283 24.4474 124.995 24.8059 124.79 25.2795C124.586 25.7403 124.483 26.3228 124.483 27.0268C124.483 27.6541 124.605 28.1917 124.848 28.6398C125.091 29.0878 125.418 29.4334 125.827 29.6766C126.25 29.907 126.717 30.0223 127.229 30.0223C127.792 30.0223 128.259 29.8942 128.631 29.6382C129.002 29.3694 129.29 29.0302 129.495 28.6206L131.472 29.4654C131.204 29.9775 130.864 30.4255 130.455 30.8095C130.045 31.1935 129.552 31.488 128.976 31.6928C128.4 31.8976 127.754 32 127.037 32ZM123.619 27.4877L123.638 25.7787H130.551V27.4877H123.619Z" fill="white"/>
<path d="M19.9267 20.4497C19.9351 20.5048 19.9691 20.5525 20.0184 20.5783C20.0677 20.6041 20.1263 20.6049 20.1763 20.5804L27.4536 17.0079C27.4997 16.9853 27.5336 16.9434 27.546 16.8935C27.6379 16.525 27.6676 16.1596 27.6676 15.7655C27.6676 15.3298 27.6072 14.9325 27.5488 14.5811C27.5396 14.5253 27.5038 14.4775 27.453 14.4527L20.1757 10.9153C20.1261 10.8913 20.0681 10.892 20.0192 10.9172C19.9703 10.9425 19.9362 10.9894 19.9271 11.0437L19.9261 11.0501C19.8984 11.2167 19.8681 11.3987 19.8666 11.5833C19.8374 11.7696 19.8374 11.9857 19.8375 12.184V12.1931C19.8375 12.2672 19.8446 12.3484 19.8513 12.4242L19.8527 12.4403C19.86 12.524 19.8666 12.6045 19.8666 12.6834C19.8666 12.693 19.8674 12.7026 19.8689 12.712C19.8816 12.7883 19.8883 12.8653 19.8954 12.9464L19.8963 12.9569C19.9035 13.0384 19.9114 13.1275 19.9284 13.2093C19.9399 13.2642 19.977 13.3103 20.0283 13.3332L25.4124 15.7337L20.0258 18.2339C19.9758 18.2572 19.9397 18.3027 19.9284 18.3568C19.8992 18.4976 19.8682 18.6805 19.8666 18.8682C19.8374 19.0528 19.8375 19.236 19.8375 19.435V19.443C19.8375 19.735 19.8678 20.0596 19.9267 20.4497Z" fill="#FD5B4F"/>
<path fill-rule="evenodd" clip-rule="evenodd" d="M17.5118 7.17716C17.5611 7.20296 17.5952 7.25071 17.6035 7.30573C17.6624 7.69592 17.6928 8.02048 17.6928 8.31248V8.32056C17.6928 8.51947 17.6928 8.70271 17.6636 8.88727C17.6621 9.07496 17.6311 9.25783 17.6018 9.3987C17.5906 9.45274 17.5544 9.49828 17.5044 9.52152L12.1179 12.0218L17.502 14.4223C17.5532 14.4451 17.5904 14.4913 17.6018 14.5462C17.6188 14.628 17.6268 14.7171 17.6339 14.7985L17.6348 14.809C17.6419 14.8901 17.6486 14.9671 17.6613 15.0434C17.6629 15.0529 17.6637 15.0625 17.6637 15.072C17.6637 15.151 17.6702 15.2315 17.6775 15.3151L17.679 15.3312C17.6856 15.407 17.6928 15.4882 17.6928 15.5624V15.5715C17.6928 15.7699 17.6928 15.9859 17.6636 16.1721C17.6621 16.3568 17.6318 16.5388 17.6042 16.7052L17.6031 16.7118C17.594 16.7661 17.5599 16.813 17.511 16.8382C17.4621 16.8635 17.4041 16.8642 17.3546 16.8401L10.0773 13.3027C10.0264 13.278 9.99065 13.2302 9.98138 13.1744C9.92297 12.823 9.86258 12.4256 9.86258 11.99C9.86258 11.5959 9.89233 11.2304 9.9842 10.862C9.99665 10.8121 10.0305 10.7702 10.0767 10.7475L17.354 7.17511C17.4039 7.15059 17.4625 7.15135 17.5118 7.17716Z" fill="#FD5B4F"/>
<path fill-rule="evenodd" clip-rule="evenodd" d="M33.6024 0.785889H3.92756C1.75843 0.785889 0 2.54432 0 4.71345V23.042C0 25.2112 1.75843 26.9696 3.92756 26.9696H33.6024C35.7716 26.9696 37.53 25.2112 37.53 23.042V4.71345C37.53 2.54432 35.7716 0.785889 33.6024 0.785889ZM2.18198 4.71345C2.18198 3.74939 2.9635 2.96787 3.92756 2.96787H33.6024C34.5665 2.96787 35.348 3.74939 35.348 4.71345V23.042C35.348 24.0061 34.5665 24.7876 33.6024 24.7876H3.92756C2.9635 24.7876 2.18198 24.0061 2.18198 23.042V4.71345Z" fill="#FD5B4F"/>
<path d="M4.14576 29.1516C3.54322 29.1516 3.05477 29.64 3.05477 30.2426C3.05477 30.8451 3.54322 31.3336 4.14576 31.3336H33.3843C33.9868 31.3336 34.4752 30.8451 34.4752 30.2426C34.4752 29.64 33.9868 29.1516 33.3843 29.1516H4.14576Z" fill="#FD5B4F"/>
</svg>
