<svg xmlns="http://www.w3.org/2000/svg" xmlns:xlink="http://www.w3.org/1999/xlink" width="40" zoomAndPan="magnify" viewBox="0 0 30 30.000001" height="40" preserveAspectRatio="xMidYMid meet" version="1.0"><defs><clipPath id="53d51c073e"><path d="M 0.484375 1.320312 L 29.515625 1.320312 L 29.515625 27.449219 L 0.484375 27.449219 Z M 0.484375 1.320312 " clip-rule="nonzero"/></clipPath><clipPath id="5e225ff127"><path d="M 29.128906 6.894531 C 28.210938 3.777344 25.246094 1.320312 21.742188 1.320312 C 18.796875 1.320312 16.242188 2.980469 14.949219 5.417969 C 13.65625 2.980469 11.101562 1.320312 8.15625 1.320312 C 4.492188 1.320312 1.285156 3.777344 0.652344 7.347656 C -0.941406 16.394531 9.175781 23.476562 14.972656 27.710938 C 20.328125 23.792969 31.753906 15.8125 29.128906 6.894531 Z M 29.128906 6.894531 " clip-rule="nonzero"/></clipPath></defs><g clip-path="url(#53d51c073e)"><g clip-path="url(#5e225ff127)"><path stroke-linecap="butt" transform="matrix(0.725806, 0, 0, 0.725806, 0.48387, 1.31965)" fill="none" stroke-linejoin="miter" d="M 39.466494 7.680948 C 38.201737 3.386156 34.116841 0.000912811 29.289237 0.000912811 C 25.231251 0.000912811 21.711459 2.288239 19.930036 5.646573 C 18.148612 2.288239 14.62882 0.000912811 10.570834 0.000912811 C 5.52257 0.000912811 1.103994 3.386156 0.232119 8.305253 C -1.963715 20.769837 11.975522 30.527302 19.962327 36.36133 C 27.340973 30.963239 43.083161 19.967927 39.466494 7.680948 Z M 39.466494 7.680948 " stroke="#5170ff" stroke-width="2" stroke-opacity="1" stroke-miterlimit="4"/></g></g></svg>