<svg xmlns="http://www.w3.org/2000/svg" xmlns:xlink="http://www.w3.org/1999/xlink" width="40" zoomAndPan="magnify" viewBox="0 0 30 30.000001" height="40" preserveAspectRatio="xMidYMid meet" version="1.0"><defs><clipPath id="50f10ef783"><path d="M 0.484375 1.371094 L 29.515625 1.371094 L 29.515625 27.5 L 0.484375 27.5 Z M 0.484375 1.371094 " clip-rule="nonzero"/></clipPath></defs><g clip-path="url(#50f10ef783)"><path fill="#000000" d="M 28.542969 1.4375 L 0.890625 13.808594 C 0.601562 13.941406 0.464844 14.164062 0.484375 14.480469 C 0.507812 14.800781 0.671875 15.003906 0.976562 15.09375 L 10.335938 17.886719 L 12.953125 27 C 13.027344 27.265625 13.203125 27.425781 13.472656 27.480469 C 13.523438 27.492188 13.570312 27.496094 13.617188 27.496094 C 13.832031 27.496094 14.011719 27.414062 14.148438 27.25 L 19.355469 21.035156 L 28.566406 24.699219 C 28.652344 24.730469 28.734375 24.746094 28.824219 24.746094 C 29.015625 24.746094 29.179688 24.679688 29.3125 24.546875 C 29.449219 24.410156 29.515625 24.25 29.515625 24.058594 L 29.515625 2.0625 C 29.515625 1.949219 29.488281 1.839844 29.433594 1.734375 C 29.375 1.632812 29.296875 1.550781 29.199219 1.488281 C 29.101562 1.425781 28.992188 1.386719 28.878906 1.378906 C 28.761719 1.371094 28.648438 1.390625 28.542969 1.4375 Z M 3.148438 14.308594 L 24.519531 4.746094 L 10.570312 16.523438 Z M 13.921875 25.371094 L 11.640625 17.425781 L 23.238281 7.628906 L 14.46875 18.121094 C 14.398438 18.207031 14.351562 18.300781 14.324219 18.410156 C 14.300781 18.515625 14.300781 18.625 14.328125 18.730469 C 14.355469 18.835938 14.40625 18.929688 14.480469 19.015625 C 14.554688 19.097656 14.640625 19.15625 14.742188 19.199219 L 18.007812 20.496094 Z M 28.132812 23.046875 L 16.140625 18.273438 L 28.132812 3.921875 Z M 28.132812 23.046875 " fill-opacity="1" fill-rule="nonzero"/></g></svg>